<svg xmlns="http://www.w3.org/2000/svg" viewBox="0 0 100 100"><g><rect x="43" y="6" width="14" height="44" rx="7" fill="#7b3f99" opacity=".85" transform="rotate(0 50 50)"/><rect x="43" y="6" width="14" height="44" rx="7" fill="#ec7d23" opacity=".85" transform="rotate(45 50 50)"/><rect x="43" y="6" width="14" height="44" rx="7" fill="#9c6b2e" opacity=".85" transform="rotate(90 50 50)"/><rect x="43" y="6" width="14" height="44" rx="7" fill="#1e9b48" opacity=".85" transform="rotate(135 50 50)"/><rect x="43" y="6" width="14" height="44" rx="7" fill="#12a25c" opacity=".85" transform="rotate(180 50 50)"/><rect x="43" y="6" width="14" height="44" rx="7" fill="#8bc53f" opacity=".85" transform="rotate(225 50 50)"/><rect x="43" y="6" width="14" height="44" rx="7" fill="#8b8e90" opacity=".85" transform="rotate(270 50 50)"/><rect x="43" y="6" width="14" height="44" rx="7" fill="#d64d9c" opacity=".85" transform="rotate(315 50 50)"/></g></svg>